<svg xmlns="http://www.w3.org/2000/svg" viewBox="0 0 1440 320"><path fill="#FFC107" fill-opacity="1" d="M0,0L34.3,0C68.6,0,137,0,206,26.7C274.3,53,343,107,411,133.3C480,160,549,160,617,149.3C685.7,139,754,117,823,133.3C891.4,149,960,203,1029,213.3C1097.1,224,1166,192,1234,176C1302.9,160,1371,160,1406,160L1440,160L1440,320L1405.7,320C1371.4,320,1303,320,1234,320C1165.7,320,1097,320,1029,320C960,320,891,320,823,320C754.3,320,686,320,617,320C548.6,320,480,320,411,320C342.9,320,274,320,206,320C137.1,320,69,320,34,320L0,320Z"></path></svg>